<!-- Generated by IcoMoon.io -->
<svg version="1.1" xmlns="http://www.w3.org/2000/svg" width="1024" height="1024" viewBox="0 0 1024 1024">
<title></title>
<g id="icomoon-ignore">
</g>
<path fill="#53a318" d="M141.483 867.584c98.219 102.485 223.488 156.416 371.029 156.416 170.155 0 330.197-83.2 425.728-220.288 57.728-83.2 85.76-177.408 85.76-288.213 0-20.651-1.365-42.923-2.688-65.237h-569.259v196.693h285.312c-49.28 85.845-132.011 133.12-224.853 133.12-137.771 0-261.333-120.491-261.333-277.205 0-141.44 115.157-258.944 261.333-258.944 78.677 0 143.147 31.957 205.269 95.531h278.187c-80-210.645-267.051-339.456-480.427-339.456-141.781 0-265.387 49.92-363.947 145.451-98.261 95.488-151.595 220.288-151.595 356.053-0.341 145.792 47.275 267.563 141.483 366.080z"></path>
</svg>
